HIERARCHY
ROOT root
{
	OFFSET 0.000000 0.000000 0.000000
	CHANNELS 6 Xposition Yposition Zposition Zrotation Yrotation Xrotation
	JOINT lhip
	{
		OFFSET 0.058581 -0.082280 -0.017664
		CHANNELS 3 Zrotation Yrotation Xrotation
		JOINT lknee
		{
			OFFSET 0.043451 -0.386469 0.008037
			CHANNELS 3 Zrotation Yrotation Xrotation
			JOINT lankle
			{
				OFFSET -0.014790 -0.426874 -0.037428
				CHANNELS 3 Zrotation Yrotation Xrotation
				JOINT ltoe
				{
					OFFSET 0.041054 -0.060286 0.122042
					CHANNELS 3 Zrotation Yrotation Xrotation
					End Site
					{
						OFFSET 0.000000 0.000000 0.000000
					}
				}
			}
		}
	}
	JOINT rhip
	{
		OFFSET -0.060310 -0.090513 -0.013543
		CHANNELS 3 Zrotation Yrotation Xrotation
		JOINT rknee
		{
			OFFSET -0.043257 -0.383688 -0.004843
			CHANNELS 3 Zrotation Yrotation Xrotation
			JOINT rankle
			{
				OFFSET 0.019056 -0.420046 -0.034562
				CHANNELS 3 Zrotation Yrotation Xrotation
				JOINT rtoe
				{
					OFFSET -0.034840 -0.062106 0.130323
					CHANNELS 3 Zrotation Yrotation Xrotation
					End Site
					{
						OFFSET 0.000000 0.000000 0.000000
					}
				}
			}
		}
	}
	JOINT lowerback
	{
		OFFSET 0.004439 0.124404 -0.038385
		CHANNELS 3 Zrotation Yrotation Xrotation
		JOINT upperback
		{
			OFFSET 0.004488 0.137956 0.026820
			CHANNELS 3 Zrotation Yrotation Xrotation
			JOINT chest
			{
				OFFSET -0.002265 0.056032 0.002855
				CHANNELS 3 Zrotation Yrotation Xrotation
				JOINT lowerneck
				{
					OFFSET -0.013390 0.211636 -0.033468
					CHANNELS 3 Zrotation Yrotation Xrotation
					JOINT upperneck
					{
						OFFSET 0.010113 0.088937 0.050410
						CHANNELS 3 Zrotation Yrotation Xrotation
						End Site
						{
							OFFSET 0.000000 0.000000 0.000000
						}
					}
				}
				JOINT lclavicle
				{
					OFFSET 0.071702 0.114000 -0.018898
					CHANNELS 3 Zrotation Yrotation Xrotation
					JOINT lshoulder
					{
						OFFSET 0.122921 0.045205 -0.019046
						CHANNELS 3 Zrotation Yrotation Xrotation
						JOINT lelbow
						{
							OFFSET 0.255332 -0.015649 -0.022946
							CHANNELS 3 Zrotation Yrotation Xrotation
							JOINT lwrist
							{
								OFFSET 0.265709 0.012698 -0.007375
								CHANNELS 3 Zrotation Yrotation Xrotation
								End Site
								{
									OFFSET 0.000000 0.000000 0.000000
								}
							}
						}
					}
				}
				JOINT rclavicle
				{
					OFFSET -0.082954 0.112472 -0.023707
					CHANNELS 3 Zrotation Yrotation Xrotation
					JOINT rshoulder
					{
						OFFSET -0.113228 0.046853 -0.008472
						CHANNELS 3 Zrotation Yrotation Xrotation
						JOINT relbow
						{
							OFFSET -0.260127 -0.014369 -0.031269
							CHANNELS 3 Zrotation Yrotation Xrotation
							JOINT rwrist
							{
								OFFSET -0.269108 0.006794 -0.006027
								CHANNELS 3 Zrotation Yrotation Xrotation
								End Site
								{
									OFFSET 0.000000 0.000000 0.000000
								}
							}
						}
					}
				}
			}
		}
	}
}
MOTION
Frames: 13
Frame Time: 0.033333
-0.091242 0.158983 0.979767 -1.305057 0.169796 81.370454 5.395483 4.342542 8.028531 -4.954084 1.445479 2.099968 1.833302 14.282014 -13.785494 0.000000 -0.000000 0.000000 -4.561559 -2.543164 -1.967926 1.150032 -5.824476 20.701349 2.636502 -7.484232 -12.917607 0.000000 -0.000000 0.000000 0.670021 -0.867123 5.339914 0.796326 -2.851418 15.379490 -0.948216 -2.114190 2.033383 2.047557 2.148492 8.667770 0.280563 0.695082 17.936298 -27.621472 -0.866634 7.343011 -54.213930 -6.982357 8.241853 10.860664 -32.539574 -1.803328 -1.967230 -9.385429 -3.915767 26.845405 7.433039 6.446154 51.667804 6.347362 11.947096 -12.088037 28.574178 -6.261696 2.702636 8.446636 -9.067968 
-0.091313 0.158530 0.979681 -1.257470 0.202511 81.407694 5.432498 4.259064 7.995066 -4.966918 1.451952 2.096343 1.836961 14.288515 -13.795120 0.000000 -0.000000 0.000000 -4.503637 -2.537178 -1.944014 1.220075 -5.654505 20.626931 2.792920 -7.734883 -12.959832 0.000000 -0.000000 0.000000 0.761273 -0.984736 5.488256 0.655026 -2.783082 14.960284 -0.932942 -2.076995 2.363773 2.080869 2.169857 8.102470 0.291159 0.760676 18.491240 -27.428985 -0.835038 7.357664 -54.478205 -7.165428 8.134772 10.953255 -32.443329 -1.676357 -2.233677 -9.492867 -3.785648 26.823469 7.394332 6.549414 51.791538 6.539028 11.900725 -12.145340 28.502077 -6.368445 2.750263 8.483345 -8.963933 
-0.091358 0.158147 0.979704 -1.239428 0.198398 81.471285 5.420512 4.221529 7.933781 -4.967514 1.454049 2.112922 1.841863 14.303362 -13.806334 0.000000 -0.000000 0.000000 -4.491216 -2.511993 -1.986029 1.207774 -5.681128 20.637726 2.779928 -7.764280 -12.989837 0.000000 -0.000000 0.000000 0.780385 -1.008728 5.526570 0.622916 -2.767495 14.925548 -0.942139 -2.083559 2.365727 2.089551 2.249975 7.915659 0.269281 0.792780 18.566563 -27.446426 -0.807390 7.362053 -54.490981 -7.207247 8.101310 11.020698 -32.582512 -1.713057 -2.193029 -9.722638 -3.791090 26.840451 7.409499 6.573178 51.848727 6.541348 11.910455 -12.191895 28.498718 -6.368391 2.686991 8.528907 -9.036192 
-0.091232 0.157515 0.979853 -1.278757 0.163973 81.594797 5.357975 4.159330 7.838352 -4.939293 1.492000 2.103469 1.806289 14.362347 -13.783240 0.000000 -0.000000 0.000000 -4.538352 -2.485636 -2.056722 1.164382 -5.825536 20.692082 2.749424 -7.678007 -13.065850 0.000000 -0.000000 0.000000 0.800252 -1.053513 5.480749 0.550073 -2.687224 14.956451 -0.956713 -2.080971 2.380327 2.144073 2.450838 7.897976 0.225423 0.669602 18.497236 -27.463701 -0.709373 7.405757 -54.393320 -7.274583 8.000980 11.007533 -33.425773 -1.944338 -1.742252 -11.169327 -4.050183 26.801334 7.463607 6.615368 51.948904 6.354359 11.969393 -12.282758 28.723162 -6.209281 2.416710 8.862258 -9.334520 
-0.091107 0.157200 0.979962 -1.300524 0.161241 81.658025 5.351667 4.157756 7.768635 -4.922920 1.487304 2.119900 1.799586 14.381376 -13.757286 0.000000 -0.000000 0.000000 -4.547817 -2.490635 -2.093613 1.148550 -5.861286 20.724837 2.751035 -7.665372 -13.113382 0.000000 -0.000000 0.000000 0.817933 -1.072952 5.468211 0.537902 -2.674538 14.965737 -0.959504 -2.072043 2.396974 2.119180 2.498683 7.936555 0.180304 0.656250 18.408756 -27.412125 -0.631603 7.391055 -54.474410 -7.181541 8.072832 11.052015 -33.753303 -1.876566 -1.541728 -11.452452 -4.267303 26.787134 7.437701 6.592438 51.947403 6.258002 12.014370 -12.314297 28.861035 -6.072384 2.337048 8.910622 -9.486895 
-0.091169 0.156944 0.979831 -1.241720 0.191442 81.638282 5.422351 4.245773 7.771127 -4.947111 1.419634 2.142283 1.838545 14.301158 -13.790097 0.000000 -0.000000 0.000000 -4.487712 -2.555006 -2.075842 1.173210 -5.681272 20.684487 2.780036 -7.793178 -13.090121 0.000000 -0.000000 0.000000 0.818348 -1.043234 5.590659 0.621315 -2.793865 14.940293 -0.976733 -2.067365 2.358962 1.993840 2.328321 7.730351 0.154088 0.899935 18.525931 -27.373078 -0.651112 7.253019 -54.717881 -6.943174 8.293570 11.021007 -32.982181 -1.568200 -1.552832 -9.535117 -4.448754 26.948046 7.277329 6.508406 51.732652 6.498640 11.968539 -12.144047 28.659577 -6.177331 2.515270 8.479984 -9.155952 
-0.091289 0.156391 0.979646 -1.196009 0.178558 81.672555 5.403263 4.229404 7.802337 -4.964845 1.426416 2.083517 1.834007 14.287122 -13.836318 0.000000 -0.000000 0.000000 -4.492950 -2.538840 -2.071825 1.204561 -5.636876 20.616759 2.795773 -7.845446 -13.047737 0.000000 -0.000000 0.000000 0.797580 -1.030335 5.606484 0.621004 -2.819462 14.955901 -0.997220 -2.094819 2.330789 2.041992 2.357787 7.483689 0.139463 0.929463 18.746444 -27.454269 -0.641348 7.207438 -54.629726 -7.068371 8.212341 10.978327 -32.481013 -1.540858 -1.971911 -9.398308 -4.003167 27.052686 7.240562 6.511986 51.708315 6.693509 11.905441 -12.091907 28.477624 -6.342496 2.643175 8.476002 -8.860257 
-0.091341 0.155826 0.979561 -1.181749 0.185937 81.723290 5.401629 4.211139 7.795153 -4.969612 1.435884 2.081971 1.838020 14.290377 -13.867771 0.000000 -0.000000 0.000000 -4.482181 -2.531888 -2.074031 1.210748 -5.640205 20.589914 2.789366 -7.855717 -13.060705 0.000000 -0.000000 0.000000 0.811645 -1.015826 5.652201 0.604210 -2.816804 14.898057 -1.007163 -2.116723 2.333112 2.080434 2.400397 7.414379 0.121574 0.922113 18.825498 -27.438382 -0.612523 7.208763 -54.644348 -7.093286 8.179311 11.012867 -32.449963 -1.550561 -2.101621 -9.419805 -3.897505 27.068042 7.207553 6.516200 51.782105 6.723822 11.922987 -12.148288 28.495656 -6.373875 2.684550 8.476239 -8.865030 
-0.091338 0.155258 0.979531 -1.194526 0.196527 81.769795 5.402848 4.194126 7.789774 -4.972527 1.440601 2.093662 1.840242 14.309409 -13.906272 0.000000 -0.000000 0.000000 -4.469392 -2.514728 -2.075028 1.212854 -5.642600 20.572066 2.790002 -7.864146 -13.072397 0.000000 -0.000000 0.000000 0.810720 -1.015915 5.637591 0.596406 -2.817866 14.933838 -1.014745 -2.107297 2.345289 2.112140 2.452045 7.345320 0.096433 0.915521 18.880124 -27.428811 -0.592459 7.205562 -54.666918 -7.105199 8.155121 11.060099 -32.464917 -1.574551 -2.164906 -9.447323 -3.868399 27.102842 7.217186 6.542953 51.810422 6.752442 11.930595 -12.209417 28.517269 -6.425527 2.681901 8.485286 -8.909419 
-0.091265 0.154514 0.979490 -1.220736 0.212674 81.824325 5.402105 4.175956 7.803130 -4.962977 1.458250 2.076414 1.827370 14.333922 -13.930370 0.000000 -0.000000 0.000000 -4.454825 -2.507097 -2.081802 1.215725 -5.620479 20.559108 2.794823 -7.859612 -13.071089 0.000000 -0.000000 0.000000 0.785138 -1.025204 5.548298 0.609132 -2.821900 15.068831 -1.011946 -2.069584 2.348821 2.131806 2.492646 7.268105 0.092928 0.910169 18.947244 -27.453187 -0.578946 7.170772 -54.676739 -7.141468 8.137604 11.083449 -32.424067 -1.635507 -2.182070 -9.454707 -3.844473 27.160253 7.231779 6.564122 51.791597 6.825857 11.904798 -12.222859 28.456914 -6.505669 2.649267 8.490803 -8.891702 
-0.091202 0.153820 0.979451 -1.262721 0.220222 81.885515 5.394530 4.182903 7.817482 -4.949363 1.475011 2.033338 1.821837 14.356008 -13.937084 0.000000 -0.000000 0.000000 -4.445164 -2.504300 -2.097350 1.213651 -5.596971 20.538788 2.802270 -7.855506 -13.072149 0.000000 -0.000000 0.000000 0.777029 -1.011970 5.511030 0.613547 -2.801658 15.069713 -1.018202 -2.055640 2.346406 2.152669 2.499986 7.234880 0.069717 0.915330 19.008547 -27.457741 -0.514807 7.113292 -54.690557 -7.135388 8.163556 11.102506 -32.409254 -1.666892 -2.181292 -9.430613 -3.827622 27.203152 7.181656 6.539403 51.804720 6.836761 11.924187 -12.226422 28.413684 -6.537130 2.634625 8.479639 -8.857550 
-0.091127 0.153084 0.979409 -1.308551 0.233819 81.945817 5.400397 4.190916 7.835580 -4.944286 1.491490 1.995041 1.810893 14.371536 -13.957325 0.000000 -0.000000 0.000000 -4.431591 -2.500648 -2.094737 1.218102 -5.574570 20.499104 2.809385 -7.845385 -13.075301 0.000000 -0.000000 0.000000 0.779470 -0.999939 5.459764 0.614789 -2.785250 15.077056 -1.031776 -2.046604 2.332154 2.172997 2.484692 7.179437 0.055198 0.869520 19.010881 -27.463829 -0.442107 7.062259 -54.696441 -7.124917 8.164942 11.118026 -32.407877 -1.696253 -2.187115 -9.424480 -3.830627 27.242994 7.115386 6.520298 51.829950 6.848749 11.927651 -12.228174 28.394602 -6.563382 2.626899 8.472720 -8.850851 
-0.091029 0.152284 0.979365 -1.338675 0.252493 82.010546 5.410385 4.198787 7.843178 -4.937428 1.497495 1.965747 1.795116 14.378511 -13.982064 0.000000 -0.000000 0.000000 -4.412418 -2.484280 -2.101295 1.218763 -5.562756 20.472731 2.810808 -7.849032 -13.082998 0.000000 -0.000000 0.000000 0.779459 -0.995037 5.394703 0.619357 -2.777416 15.089516 -1.052102 -2.041822 2.329578 2.190208 2.419411 7.108184 0.054341 0.736517 18.870640 -27.467606 -0.365671 6.980436 -54.708548 -7.112627 8.175608 11.149584 -32.409768 -1.752572 -2.218369 -9.417168 -3.809990 27.290938 7.046150 6.461227 51.861787 6.832608 11.924324 -12.248016 28.414249 -6.607160 2.621418 8.467952 -8.841975 
